<svg width="1200" height="400" viewBox="0 0 1200 400" fill="none"
    xmlns="http://www.w3.org/2000/svg">
    <style>
        #background {
        visibility: hidden;
        transform: scaleY(0);
        transform-origin: center;
        fill: #fff;
        animation: background 1s cubic-bezier(0.25, 1, 0.5, 1) 0s 1 forwards;
        }

        @keyframes background {
        0% {
        transform: scaleY(0);
        }

        9.99% {
        transform: scaleY(0);
        }

        10% {
        transform: scaleY(1);
        }

        30% {
        transform: scaleY(1);
        }

        30.01% {
        transform: scaleY(0);
        }

        40% {
        transform: scaleY(0);
        }

        100% {
        visibility: visible;
        transform: scaleY(1);
        }
        }

        #cursor {
        opacity: 0;
        animation: cursor 1s linear 0.8s infinite forwards;
        }

        @keyframes cursor {
        0% {
        opacity: 0;
        }

        40% {
        opacity: 0;
        }

        50% {
        opacity: 1;
        }

        99.99% {
        opacity: 1;
        }

        100% {
        opacity: 0;
        }
        }

        #blobs {
        opacity: 0;
        animation: show 1s ease-out 1.3s 1 forwards;
        }

        #blobs > path {
        --scale: 3;
        fill: transparent;
        stroke: #353535;
        stroke-width: 0.3px;
        transform: scale(var(--scale));
        animation: blob-rotate 10s linear 0s infinite forwards;

        }

        #blobs > path.speed-2 {
        animation-duration: 15s;
        }

        #blobs > path.speed-3 {
        animation-duration: 20s;
        }

        #blobs > path.speed-4 {
        animation-duration: 25s;
        }

        #blobs > path.speed-5 {
        animation-duration: 30s;
        }

        #blobs > path.rev {
        animation-direction: reverse;
        }

        @keyframes blob-rotate {
        0% {
        transform: scale(var(--scale)) rotate(0deg);
        }

        100% {
        transform: scale(var(--scale)) rotate(360deg);
        }
        }

        @keyframes show {
        0% {
        opacity: 0;
        }

        100% {
        opacity: 1;
        }
        }

        @keyframes blink-out {
        0%,
        19.99%,
        40%,
        59.99%,
        90% {
        opacity: 0;
        }

        20%,
        39.99% {
        opacity: 0.3;
        }

        60%,
        89.99% {
        opacity: 0.8;
        }

        100% {
        opacity: 0;
        }
        }

        #nameUnderlay {
        opacity: 1;
        animation: blink-out 0.4s linear 1.2s 1 forwards;
        }

        #nameBlobs {
        opacity: 0;
        animation: show 0.1s linear 1.6s 1 forwards;
        }

        #nameBlobs > .blob-1 {
        transform: translate(800px, 300px);
        }

        #nameBlobs > .blob-1 > path {
        --scale: 2;
        fill: #FF0066;
        transform: scale(var(--scale));
        animation: blob-rotate 10s linear 0s infinite forwards;
        }

        #nameBlobs > .blob-2 {
        transform: translate(600px, -100px);
        }

        #nameBlobs > .blob-2 > path {
        --scale: 4;
        fill: #0077ff;
        transform: scale(var(--scale));
        animation: blob-rotate 13s linear 0s infinite forwards;
        }

        #nameBlobs > .blob-3 {
        transform: translate(520px, 560px);
        }

        #nameBlobs > .blob-3 > path {
        --scale: 5;
        fill: #ff8800;
        transform: scale(var(--scale));
        animation: blob-rotate 18s linear 0s infinite backwards;
        }

        #nameBlobs > .blob-4 {
        transform: translate(220px, 160px);
        }

        #nameBlobs > .blob-4 > path {
        --scale: 4;
        fill: #6200ff;
        transform: scale(var(--scale));
        animation: blob-rotate 14s linear 0s infinite;
        }

        .fade-up {
        --amount: 60px;
        opacity: 0;
        transform: translateY(var(--amount));
        animation: fade-up 0.4s cubic-bezier(0.25, 1, 0.5, 1) 0.6s 1 forwards;
        }

        .fade-down {
        --amount: -60px;
        opacity: 0;
        transform: translateY(var(--amount));
        animation: fade-down 0.4s cubic-bezier(0.25, 1, 0.5, 1) 0.6s 1 forwards;
        }

        .fade-right {
        --amount: 60px;
        opacity: 0;
        transform: translateX(var(--amount));
        animation: fade-right 0.4s cubic-bezier(0.25, 1, 0.5, 1) 0.6s 1 forwards;
        }

        .small {
        --amount: 20px;
        }

        .fade-down.small {
        --amount: -20px;
        }

        .fade-scale {
        transform: scaleX(0);
        transform-origin: 54px 0;
        animation: fade-scale 0.4s cubic-bezier(0.25, 1, 0.5, 1) 0.6s 1 forwards;
        }

        .d-05 {
        animation-delay: 0.65s;
        }

        .d-1 {
        animation-delay: 0.7s;
        }

        .d-15 {
        animation-delay: 0.75s;
        }

        .d-2 {
        animation-delay: 0.8s;
        }

        .d-25 {
        animation-delay: 0.85s;
        }

        .d-3 {
        animation-delay: 0.9s;
        }

        .d-35 {
        animation-delay: 0.95s;
        }

        .d-4 {
        animation-delay: 1s;
        }

        .d-45 {
        animation-delay: 1.05s;
        }

        .d-5 {
        animation-delay: 1.1s;
        }

        .d-55 {
        animation-delay: 1.15s;
        }

        .d-6 {
        animation-delay: 1.2s;
        }

        .d-6 {
        animation-delay: 1.25s;
        }

        .d-7 {
        animation-delay: 1.3s;
        }

        @keyframes fade-up {
        0% {
        opacity: 0;
        transform: translateY(var(--amount));
        }

        10% {
        transform: translateY(var(--amount));
        }

        30% {
        opacity: 1;
        }

        100% {
        opacity: 1;
        transform: translateY(0);
        }
        }

        @keyframes fade-down {
        0% {
        opacity: 0;
        transform: translateY(var(--amount));
        }

        10% {
        transform: translateY(var(--amount));
        }

        30% {
        opacity: 1;
        }

        100% {
        opacity: 1;
        transform: translateY(0);
        }
        }

        @keyframes fade-right {
        0% {
        opacity: 0;
        transform: translateX(var(--amount));
        }

        10% {
        transform: translateX(var(--amount));
        }

        30% {
        opacity: 1;
        }

        100% {
        opacity: 1;
        transform: translateX(0);
        }
        }

        @keyframes fade-scale {
        0% {
        transform: scaleX(0);
        }

        100% {
        transform: scaleX(1);
        }
        }
    </style>
    <rect width="1200" height="400" fill="#F5F5F5" />
    <g>
        <rect width="1280" height="832" transform="translate(-39 -432)" fill="white" />
        <g id="card-v2" clip-path="url(#clip0_0_1)">
            <rect width="1200" height="400" fill="white" />
            <g id="blobs" transform="translate(1300 100)">
                <path class="speed-0"
                    d="M45.2,-35.1C56.6,-21.8,62.3,-3.2,60.4,17.3C58.6,37.8,49.2,60.2,32.8,68.1C16.4,76,-7,69.4,-29.8,59.4C-52.5,49.3,-74.8,35.7,-80.3,16.8C-85.9,-2.1,-74.7,-26.4,-58.6,-40.8C-42.4,-55.2,-21.2,-59.7,-2.1,-58C16.9,-56.3,33.9,-48.4,45.2,-35.1Z" />
                <path class="speed-3"
                    d="M64.2,-47.9C78.1,-33.9,80.6,-7.4,74.2,15.5C67.8,38.5,52.6,58,32.8,67C13.1,76.1,-11.1,74.7,-33.5,65.5C-56,56.3,-76.7,39.2,-80.5,19.3C-84.3,-0.6,-71.2,-23.5,-55,-38C-38.7,-52.6,-19.4,-58.8,2.9,-61.1C25.2,-63.4,50.4,-61.8,64.2,-47.9Z" />
                <path class="speed-1 rev"
                    d="M62.6,-50C78.1,-30.5,85.5,-4.7,80.5,19C75.6,42.6,58.4,64,35.9,75.1C13.3,86.2,-14.5,87,-30.1,74.7C-45.6,62.5,-49,37.2,-53.7,13.3C-58.4,-10.7,-64.3,-33.3,-55.5,-51.3C-46.8,-69.2,-23.4,-82.5,0.1,-82.6C23.6,-82.6,47.1,-69.5,62.6,-50Z" />
                <path class="speed-2"
                    d="M53.5,-43.7C62.2,-31.6,57.4,-9.8,52.8,12.8C48.3,35.5,44,58.9,29.5,68.7C15.1,78.5,-9.5,74.6,-28.7,63.8C-47.8,52.9,-61.6,35,-63.9,16.9C-66.2,-1.3,-57.2,-19.8,-44.6,-32.8C-32,-45.7,-16,-53.1,3.2,-55.6C22.4,-58.2,44.7,-55.8,53.5,-43.7Z" />
                <path class="speed-4 rev"
                    d="M51.3,-42.8C64,-24.9,70.3,-3.7,66.1,15.3C62,34.3,47.3,51,30.6,56.2C13.9,61.4,-4.8,55.1,-25.3,47.3C-45.8,39.4,-68.1,30,-75.9,12.5C-83.7,-5,-77.1,-30.6,-62,-49C-46.9,-67.4,-23.5,-78.7,-2.1,-77C19.2,-75.3,38.5,-60.7,51.3,-42.8Z" />
                <path class="speed-5"
                    d="M51.7,-72.3C64.9,-61.5,72.1,-43.6,74.1,-26.7C76,-9.7,72.7,6.4,66.3,20.1C59.9,33.8,50.4,45,38.8,54.3C27.2,63.6,13.6,71.1,-0.1,71.3C-13.9,71.4,-27.7,64.3,-42.1,55.9C-56.6,47.5,-71.6,37.8,-78.5,23.8C-85.4,9.8,-84.2,-8.6,-77.3,-23.7C-70.5,-38.8,-57.9,-50.7,-44.1,-61.2C-30.3,-71.8,-15.1,-81.1,2,-83.9C19.2,-86.7,38.5,-83.1,51.7,-72.3Z" />
                <path class="speed-3 rev"
                    d="M46.5,-66.6C58.4,-55.4,64.9,-39.3,71.9,-22.3C78.9,-5.3,86.4,12.6,83.1,28.2C79.7,43.8,65.4,57.1,49.8,64.2C34.1,71.2,17,72,0.6,71.2C-15.9,70.5,-31.9,68.2,-42.4,59.4C-52.8,50.7,-57.8,35.5,-63.1,20.3C-68.4,5,-74,-10.5,-72.8,-26.6C-71.6,-42.7,-63.5,-59.4,-50.2,-70.2C-36.9,-80.9,-18.5,-85.6,-0.6,-84.8C17.3,-84,34.6,-77.8,46.5,-66.6Z" />
            </g>
            <g id="Group">
                <g id="CUZKNOTHZ">
                    <path
                        d="M437.806 188.627H448.328V218.395C448.328 228.132 443.604 233 434.154 233H432.236C422.787 233 418.041 228.132 418 218.395V127.544C418 117.807 422.745 112.959 432.236 113H434.154C443.604 113 448.328 117.848 448.328 127.544V157.312H437.806V128.967C437.806 125.336 436.238 123.521 433.102 123.521C430.049 123.521 428.522 125.336 428.522 128.967V217.033C428.522 220.664 430.049 222.479 433.102 222.479C436.238 222.479 437.806 220.664 437.806 217.033V188.627Z"
                        fill="black" />
                    <path
                        d="M482.658 114.609H493.18V218.395C493.18 228.132 488.455 233 479.006 233H477.087C467.638 233 462.893 228.132 462.851 218.395V114.609H473.373V217.033C473.373 220.664 474.9 222.479 477.954 222.479C481.09 222.479 482.658 220.664 482.658 217.033V114.609Z"
                        fill="black" />
                    <path
                        d="M527.509 114.609V125.13L518.101 222.479H527.509V233H507.703V222.479L516.987 125.13H507.703V114.609H527.509Z"
                        fill="black" />
                    <path
                        d="M564.128 172.907C567.429 177.652 569.616 181.675 570.689 184.975C571.803 188.276 572.36 192.711 572.36 198.281V233H561.962L561.838 196.734C561.838 193.681 561.529 191.123 560.91 189.06C560.332 186.997 559.197 184.707 557.506 182.19C555.566 185.161 554.246 187.74 553.544 189.926C552.884 192.113 552.554 194.939 552.554 198.405V233H542.032V114.609H552.554V170.741C558.743 163.892 561.838 156.672 561.838 149.081L561.962 114.609H572.36V147.595C572.36 153.165 571.803 157.6 570.689 160.901C569.616 164.161 567.429 168.163 564.128 172.907Z"
                        fill="black" />
                    <path
                        d="M606.937 114.609H617.212V233H606.937L596.91 167.956V233H586.883V114.609H596.91L606.937 178.601V114.609Z"
                        fill="black" />
                    <path
                        d="M647.889 113C657.338 113 662.063 117.848 662.063 127.544V218.395C662.063 228.132 657.338 233 647.889 233H649.993H645.97C636.521 233 631.776 228.132 631.734 218.395V127.544C631.734 117.807 636.48 112.959 645.97 113H647.889ZM651.541 217.033V128.967C651.541 125.336 649.973 123.521 646.837 123.521C643.783 123.521 642.257 125.336 642.257 128.967V217.033C642.257 220.664 643.783 222.479 646.837 222.479C649.973 222.479 651.541 220.664 651.541 217.033Z"
                        fill="black" />
                    <path
                        d="M704.315 114.609V125.13H694.411V233H683.889V125.13H673.986V114.609H704.315Z"
                        fill="black" />
                    <path
                        d="M728.617 114.609V170.741C728.699 170.659 729.133 170.122 729.917 169.132C733.3 164.47 735.487 160.881 736.478 158.364C737.509 155.806 738.025 152.505 738.025 148.462V114.609H748.547V233H738.025V175.94C737.942 176.105 737.798 176.352 737.592 176.682C737.385 176.971 737.2 177.198 737.035 177.363C733.651 182.025 731.423 185.594 730.35 188.07C729.277 190.545 728.741 193.743 728.741 197.662L728.617 233H718.219V114.609H728.617Z"
                        fill="black" />
                    <path
                        d="M783 114.609V125.13L773.592 222.479H783V233H763.194V222.479L772.478 125.13H763.194V114.609H783Z"
                        fill="black" />
                </g>
                <g id="Mask group">
                    <mask id="mask0_0_1" style="mask-type:luminance" maskUnits="userSpaceOnUse"
                        x="0" y="0" width="1200" height="400">
                        <g id="Group_2">
                            <path id="Vector" d="M1200 0H0V400H1200V0Z" fill="black" />
                            <g id="CUZKNOTHZ_2">
                                <path
                                    d="M437.806 188.627H448.328V218.395C448.328 228.132 443.604 233 434.154 233H432.236C422.787 233 418.041 228.132 418 218.395V127.544C418 117.807 422.745 112.959 432.236 113H434.154C443.604 113 448.328 117.848 448.328 127.544V157.312H437.806V128.967C437.806 125.336 436.238 123.521 433.102 123.521C430.049 123.521 428.522 125.336 428.522 128.967V217.033C428.522 220.664 430.049 222.479 433.102 222.479C436.238 222.479 437.806 220.664 437.806 217.033V188.627Z"
                                    fill="white" />
                                <path
                                    d="M482.658 114.609H493.18V218.395C493.18 228.132 488.455 233 479.006 233H477.087C467.638 233 462.893 228.132 462.851 218.395V114.609H473.373V217.033C473.373 220.664 474.9 222.479 477.954 222.479C481.09 222.479 482.658 220.664 482.658 217.033V114.609Z"
                                    fill="white" />
                                <path
                                    d="M527.509 114.609V125.13L518.101 222.479H527.509V233H507.703V222.479L516.987 125.13H507.703V114.609H527.509Z"
                                    fill="white" />
                                <path
                                    d="M564.128 172.907C567.429 177.652 569.616 181.675 570.689 184.975C571.803 188.276 572.36 192.711 572.36 198.281V233H561.962L561.838 196.734C561.838 193.681 561.529 191.123 560.91 189.06C560.332 186.997 559.197 184.707 557.506 182.19C555.566 185.161 554.246 187.74 553.544 189.926C552.884 192.113 552.554 194.939 552.554 198.405V233H542.032V114.609H552.554V170.741C558.743 163.892 561.838 156.672 561.838 149.081L561.962 114.609H572.36V147.595C572.36 153.165 571.803 157.6 570.689 160.901C569.616 164.161 567.429 168.163 564.128 172.907Z"
                                    fill="white" />
                                <path
                                    d="M606.937 114.609H617.212V233H606.937L596.91 167.956V233H586.883V114.609H596.91L606.937 178.601V114.609Z"
                                    fill="white" />
                                <path
                                    d="M647.889 113C657.338 113 662.063 117.848 662.063 127.544V218.395C662.063 228.132 657.338 233 647.889 233H649.993H645.97C636.521 233 631.776 228.132 631.734 218.395V127.544C631.734 117.807 636.48 112.959 645.97 113H647.889ZM651.541 217.033V128.967C651.541 125.336 649.973 123.521 646.837 123.521C643.783 123.521 642.257 125.336 642.257 128.967V217.033C642.257 220.664 643.783 222.479 646.837 222.479C649.973 222.479 651.541 220.664 651.541 217.033Z"
                                    fill="white" />
                                <path
                                    d="M704.315 114.609V125.13H694.411V233H683.889V125.13H673.986V114.609H704.315Z"
                                    fill="white" />
                                <path
                                    d="M728.617 114.609V170.741C728.699 170.659 729.133 170.122 729.917 169.132C733.3 164.47 735.487 160.881 736.478 158.364C737.509 155.806 738.025 152.505 738.025 148.462V114.609H748.547V233H738.025V175.94C737.942 176.105 737.798 176.352 737.592 176.682C737.385 176.971 737.2 177.198 737.035 177.363C733.651 182.025 731.423 185.594 730.35 188.07C729.277 190.545 728.741 193.743 728.741 197.662L728.617 233H718.219V114.609H728.617Z"
                                    fill="white" />
                                <path
                                    d="M783 114.609V125.13L773.592 222.479H783V233H763.194V222.479L772.478 125.13H763.194V114.609H783Z"
                                    fill="white" />
                            </g>
                        </g>
                    </mask>
                    <g mask="url(#mask0_0_1)">
                        <g id="nameBlobs">
                            <path id="Vector_2" d="M1200 0H0V400H1200V0Z" fill="#31343A" />
                            <g id="Group_3">
                                <path id="Vector_3"
                                    d="M53.2 -73.5C68 -62.5 78.4 -45.7 83.7 -27.6C89 -9.6 89.1 9.7 83.3 26.9C77.5 44.1 65.8 59.3 50.9 68.6C36.1 77.9 18 81.4 1.10003 79.8C-15.8 78.3 -31.6 71.7 -46 62.3C-60.4 52.8 -73.5 40.5 -79.6 25C-85.8 9.6 -85.1 -8.89999 -77.8 -23.4C-70.5 -38 -56.7 -48.5 -42.7 -59.8C-28.6 -71.1 -14.3 -83.2 2.40002 -86.5C19.2 -89.9 38.4 -84.6 53.2 -73.5Z"
                                    fill="black" />
                            </g>
                            <g id="Group_4">
                                <path id="Vector_4"
                                    d="M54.2 -72.6C70 -63.1 82.5 -47 85 -29.8C87.6 -12.7 80.2 5.5 71.1 19.8C61.9 34.2 51 44.6 38.8 52.6C26.7 60.5 13.4 65.9 0.100006 65.7C-13.1 65.5 -26.1 59.7 -38.5 51.9C-50.8 44 -62.4 34 -69.5 20.6C-76.7 7.1 -79.4 -9.8 -75.9 -25.9C-72.4 -42 -62.6 -57.4 -48.9 -67.6C-35.2 -77.8 -17.6 -82.9 0.800011 -84C19.2 -85 38.4 -82.1 54.2 -72.6Z"
                                    fill="black" />
                            </g>
                            <g id="Group_5">
                                <path id="Vector_5"
                                    d="M45.5 -64.7C58.1 -53.6 66.6 -39 73.8 -22.6C81 -6.2 86.9 11.9 80.6 24.6C74.3 37.2 55.8 44.3 40.3 48.4C24.9 52.6 12.4 53.8 -2.99995 57.9C-18.5 62 -36.9 69.1 -50.2 64.3C-63.5 59.5 -71.7 42.7 -71.7 27C-71.7 11.3 -63.6 -3.4 -59 -19.7C-54.4 -36 -53.4 -54 -44.1 -66.2C-34.9 -78.4 -17.4 -84.8 -0.499954 -84.2C16.5 -83.5 33 -75.8 45.5 -64.7Z"
                                    fill="black" />
                            </g>
                            <g id="Group_6">
                                <path id="Vector_6"
                                    d="M51.2 -66.4C64.9 -60.6 73.5 -43.6 79.3 -25.7C85.2 -7.90001 88.3 10.9 83.9 28.1C79.5 45.3 67.5 60.8 52.2 70.4C37 80.1 18.5 83.8 4.10003 78.2C-10.4 72.6 -20.7 57.7 -31.2 46.5C-41.6 35.3 -52.1 27.8 -60.6 16.2C-69.2 4.6 -75.8 -11.1 -71.7 -23.2C-67.7 -35.4 -53 -44 -39.3 -49.8C-25.5 -55.6 -12.8 -58.4 3.00003 -62.6C18.8 -66.7 37.6 -72.2 51.2 -66.4Z"
                                    fill="black" />
                            </g>
                        </g>
                    </g>
                </g>
            </g>
            <g id="left" style="translate: -60px">
                <g id="fade-right">
                    <path id="README.md"
                        d="M60 66V46.12H68.512C69.3464 46.1102 70.1714 46.2972 70.92 46.666C71.6404 47.0257 72.2853 47.5199 72.82 48.122C73.3579 48.7232 73.7846 49.4153 74.08 50.166C74.3745 50.9006 74.5266 51.6845 74.528 52.476C74.5316 53.3686 74.3554 54.2529 74.01 55.076C73.6817 55.8728 73.185 56.5891 72.554 57.176C71.9311 57.7516 71.1752 58.1639 70.354 58.376L75.176 66H72.32L67.784 58.86H62.52V66H60ZM62.52 56.62H68.54C69.1889 56.6334 69.8239 56.4316 70.346 56.046C70.8697 55.6481 71.2828 55.1227 71.546 54.52C71.8369 53.8781 71.985 53.1807 71.98 52.476C71.9884 51.7589 71.8165 51.0513 71.48 50.418C71.1685 49.8194 70.717 49.3048 70.164 48.918C69.6393 48.5499 69.013 48.3542 68.372 48.358H62.52V56.62ZM92.452 63.76V66H78.952V46.12H92.2V48.36H81.476V54.8H90.8V56.9H81.476V63.76H92.452ZM102.504 46.12H104.632L112.752 66H110.064L107.834 60.176H99.283L97.044 66H94.356L102.504 46.12ZM107.084 58.22L103.568 49.036L100.037 58.216L107.084 58.22ZM115.972 66V46.12H122.86C124.728 46.053 126.576 46.5139 128.194 47.45C129.592 48.3032 130.707 49.5499 131.4 51.034C132.123 52.6004 132.487 54.3088 132.464 56.034C132.508 57.8591 132.104 59.6671 131.288 61.3C130.539 62.757 129.381 63.9636 127.956 64.772C126.395 65.6227 124.637 66.0463 122.86 66H115.972ZM129.92 56.032C129.946 54.6615 129.664 53.3027 129.094 52.056C128.577 50.9371 127.745 49.9932 126.7 49.34C125.54 48.6562 124.21 48.3163 122.864 48.36H118.492V63.76H122.86C124.219 63.8054 125.561 63.45 126.72 62.738C127.762 62.0605 128.588 61.0985 129.1 59.966C129.659 58.7307 129.939 57.3876 129.92 56.032ZM153.772 66V50.824L147.22 62.5H145.68L139.1 50.824V66H136.58V46.12H139.24L146.44 59.028L153.66 46.12H156.292V66H153.772ZM175.108 63.76V66H161.608V46.12H174.852V48.36H164.132V54.8H173.456V56.9H164.132V63.76H175.108ZM178.52 66V62.864H180.592V66H178.52ZM206.968 66H204.504V57.9C204.588 56.7323 204.331 55.5654 203.762 54.542C203.52 54.1873 203.19 53.9013 202.804 53.7117C202.419 53.5222 201.991 53.4354 201.562 53.46C200.563 53.4634 199.603 53.845 198.874 54.528C198.054 55.2679 197.462 56.2259 197.166 57.29V66H194.702V57.9C194.789 56.7294 194.536 55.5585 193.974 54.528C193.733 54.1765 193.405 53.8935 193.023 53.7063C192.64 53.5191 192.215 53.4343 191.79 53.46C190.802 53.4667 189.85 53.8361 189.116 54.498C188.282 55.2247 187.682 56.1829 187.394 57.251V66H184.93V51.468H187.17V54.607C187.714 53.5892 188.515 52.7318 189.494 52.12C190.464 51.5316 191.58 51.2284 192.714 51.245C193.775 51.192 194.816 51.5449 195.626 52.232C196.358 52.8963 196.833 53.7962 196.97 54.775C197.538 53.7194 198.355 52.8181 199.35 52.149C200.303 51.5425 201.413 51.2295 202.542 51.249C203.274 51.2245 204 51.3819 204.656 51.707C205.215 52.0032 205.684 52.4447 206.014 52.985C206.369 53.5807 206.615 54.2344 206.742 54.916C206.897 55.7123 206.972 56.5219 206.966 57.333L206.968 66ZM210.42 58.776C210.405 57.471 210.697 56.1808 211.274 55.01C211.807 53.9107 212.615 52.9676 213.62 52.272C214.63 51.5832 215.828 51.2241 217.05 51.244C218.173 51.2285 219.276 51.5504 220.214 52.168C221.103 52.7385 221.85 53.5047 222.398 54.408V45.56H224.862V63.2C224.843 63.434 224.907 63.6672 225.044 63.858C225.123 63.9354 225.217 63.9963 225.32 64.0372C225.423 64.078 225.533 64.098 225.644 64.096V66C225.283 66.0644 224.918 66.1018 224.552 66.112C224.078 66.1175 223.621 65.9382 223.278 65.612C223.112 65.4753 222.977 65.3046 222.883 65.1114C222.789 64.9181 222.737 64.7069 222.732 64.492V63.256C222.161 64.1815 221.361 64.9436 220.408 65.468C219.487 65.996 218.445 66.2758 217.384 66.28C216.422 66.2893 215.471 66.0844 214.598 65.68C213.755 65.2863 213.002 64.7232 212.386 64.026C211.76 63.3206 211.266 62.5075 210.93 61.626C210.585 60.7157 210.412 59.7494 210.42 58.776ZM222.4 60.91V56.753C222.166 56.1124 221.793 55.5317 221.308 55.053C220.816 54.5539 220.243 54.1417 219.614 53.834C219.037 53.5409 218.399 53.3845 217.752 53.377C217.067 53.367 216.389 53.5238 215.778 53.834C215.196 54.1335 214.682 54.5482 214.266 55.053C213.842 55.5675 213.515 56.1542 213.3 56.785C213.075 57.4357 212.962 58.1196 212.964 58.808C212.96 59.5093 213.089 60.205 213.342 60.859C213.586 61.4931 213.947 62.0758 214.406 62.577C214.855 63.0694 215.399 63.4654 216.006 63.741C216.626 64.0209 217.3 64.1628 217.98 64.157C218.453 64.1527 218.921 64.0686 219.366 63.908C219.847 63.737 220.302 63.5022 220.72 63.21C221.138 62.9253 221.507 62.5743 221.812 62.171C222.099 61.7993 222.3 61.3686 222.4 60.91Z"
                        fill="black" />
                </g>
                <g id="fade-right d-15">
                    <g id="github.com/cuzknothz">
                        <path
                            d="M236.48 62.4727C236.48 61.8984 236.689 61.4453 237.107 61.1133C237.529 60.7773 238.104 60.6094 238.83 60.6094H241.051V61.4414H239.961C240.172 61.6562 240.318 61.8516 240.4 62.0273C240.482 62.2031 240.523 62.4043 240.523 62.6309C240.523 62.9121 240.443 63.1895 240.283 63.4629C240.123 63.7324 239.916 63.9395 239.662 64.084C239.412 64.2285 239 64.3438 238.426 64.4297C238.023 64.4883 237.822 64.627 237.822 64.8457C237.822 64.9707 237.896 65.0742 238.045 65.1562C238.197 65.2344 238.471 65.3164 238.865 65.4023C239.525 65.5469 239.949 65.6602 240.137 65.7422C240.328 65.8242 240.5 65.9414 240.652 66.0938C240.91 66.3516 241.039 66.6758 241.039 67.0664C241.039 67.5781 240.811 67.9863 240.354 68.291C239.9 68.5957 239.293 68.748 238.531 68.748C237.762 68.748 237.146 68.5938 236.686 68.2852C236.229 67.9805 236 67.5703 236 67.0547C236 66.3242 236.451 65.8535 237.354 65.6426C236.994 65.4121 236.814 65.1836 236.814 64.957C236.814 64.7852 236.891 64.6289 237.043 64.4883C237.199 64.3477 237.408 64.2441 237.67 64.1777C236.877 63.8262 236.48 63.2578 236.48 62.4727ZM238.484 61.5352C238.195 61.5352 237.949 61.6328 237.746 61.8281C237.543 62.0234 237.441 62.2578 237.441 62.5312C237.441 62.8086 237.541 63.0391 237.74 63.2227C237.939 63.4023 238.191 63.4922 238.496 63.4922C238.797 63.4922 239.047 63.4004 239.246 63.2168C239.449 63.0293 239.551 62.7969 239.551 62.5195C239.551 62.2383 239.449 62.0039 239.246 61.8164C239.043 61.6289 238.789 61.5352 238.484 61.5352ZM238.232 66.252C237.873 66.252 237.578 66.3281 237.348 66.4805C237.121 66.6328 237.008 66.8281 237.008 67.0664C237.008 67.6211 237.508 67.8984 238.508 67.8984C238.98 67.8984 239.346 67.8281 239.604 67.6875C239.865 67.5508 239.996 67.3555 239.996 67.1016C239.996 66.8516 239.832 66.6465 239.504 66.4863C239.176 66.3301 238.752 66.252 238.232 66.252Z"
                            fill="black" fill-opacity="0.5" />
                        <path
                            d="M242.428 58.3418C242.604 58.3418 242.754 58.4023 242.879 58.5234C243.004 58.6445 243.066 58.793 243.066 58.9688C243.066 59.1406 243.004 59.2891 242.879 59.4141C242.754 59.5391 242.604 59.6016 242.428 59.6016C242.264 59.6016 242.119 59.5391 241.994 59.4141C241.869 59.2852 241.807 59.1367 241.807 58.9688C241.807 58.8047 241.869 58.6602 241.994 58.5352C242.119 58.4062 242.264 58.3418 242.428 58.3418ZM241.9 60.6094H242.967V66H241.9V60.6094Z"
                            fill="black" fill-opacity="0.5" />
                        <path
                            d="M243.758 61.4648L245.762 59.4961V60.6094H247.467V61.5703H245.762V64.2129C245.762 64.8301 246.018 65.1387 246.529 65.1387C246.912 65.1387 247.316 65.0098 247.742 64.752V65.748C247.332 65.9785 246.885 66.0938 246.4 66.0938C245.912 66.0938 245.506 65.9512 245.182 65.666C245.08 65.5801 244.996 65.4844 244.93 65.3789C244.863 65.2695 244.807 65.1289 244.76 64.957C244.717 64.7812 244.695 64.4492 244.695 63.9609V61.5703H243.758V61.4648Z"
                            fill="black" fill-opacity="0.5" />
                        <path
                            d="M248.486 57.8145H249.553V61.3184C249.998 60.7754 250.551 60.5039 251.211 60.5039C251.57 60.5039 251.893 60.5938 252.178 60.7734C252.463 60.9531 252.674 61.2012 252.811 61.5176C252.951 61.834 253.021 62.3047 253.021 62.9297V66H251.955V62.666C251.955 62.2715 251.857 61.9551 251.662 61.7168C251.471 61.4746 251.217 61.3535 250.9 61.3535C250.666 61.3535 250.445 61.4141 250.238 61.5352C250.031 61.6562 249.803 61.8574 249.553 62.1387V66H248.486V57.8145Z"
                            fill="black" fill-opacity="0.5" />
                        <path
                            d="M257.943 66V65.3145C257.717 65.5605 257.457 65.752 257.164 65.8887C256.875 66.0254 256.586 66.0938 256.297 66.0938C255.957 66.0938 255.643 66.0098 255.354 65.8418C255.068 65.6699 254.852 65.4395 254.703 65.1504C254.559 64.8574 254.486 64.373 254.486 63.6973V60.6094H255.553V63.6855C255.553 64.252 255.633 64.6484 255.793 64.875C255.957 65.0977 256.242 65.209 256.648 65.209C257.156 65.209 257.588 64.9609 257.943 64.4648V60.6094H259.01V66H257.943Z"
                            fill="black" fill-opacity="0.5" />
                        <path
                            d="M260.463 57.8145H261.529V60.9961C261.99 60.6602 262.482 60.4922 263.006 60.4922C263.689 60.4922 264.248 60.75 264.682 61.2656C265.115 61.7812 265.332 62.4434 265.332 63.252C265.332 64.1191 265.072 64.8105 264.553 65.3262C264.037 65.8379 263.346 66.0938 262.479 66.0938C262.131 66.0938 261.764 66.0566 261.377 65.9824C260.994 65.9082 260.689 65.8145 260.463 65.7012V57.8145ZM261.529 62.0156V64.9336C261.893 65.043 262.266 65.0977 262.648 65.0977C263.121 65.0977 263.506 64.9297 263.803 64.5938C264.104 64.2578 264.254 63.8262 264.254 63.2988C264.254 62.7637 264.113 62.3281 263.832 61.9922C263.555 61.6562 263.191 61.4883 262.742 61.4883C262.344 61.4883 261.939 61.6641 261.529 62.0156Z"
                            fill="black" fill-opacity="0.5" />
                        <path
                            d="M266.943 64.6934C267.143 64.6934 267.312 64.7617 267.453 64.8984C267.594 65.0352 267.664 65.2031 267.664 65.4023C267.664 65.5977 267.594 65.7617 267.453 65.8945C267.316 66.0273 267.146 66.0938 266.943 66.0938C266.744 66.0938 266.576 66.0273 266.439 65.8945C266.303 65.7617 266.234 65.5977 266.234 65.4023C266.234 65.2031 266.303 65.0352 266.439 64.8984C266.576 64.7617 266.744 64.6934 266.943 64.6934Z"
                            fill="black" fill-opacity="0.5" />
                        <path
                            d="M273.072 64.7402V65.7949C272.537 65.9941 272.014 66.0938 271.502 66.0938C270.658 66.0938 269.984 65.8438 269.48 65.3438C268.98 64.8438 268.73 64.1738 268.73 63.334C268.73 62.4863 268.975 61.8027 269.463 61.2832C269.951 60.7637 270.594 60.5039 271.391 60.5039C271.668 60.5039 271.916 60.5312 272.135 60.5859C272.357 60.6367 272.631 60.7344 272.955 60.8789V62.0156C272.416 61.6719 271.916 61.5 271.455 61.5C270.975 61.5 270.58 61.6699 270.271 62.0098C269.963 62.3457 269.809 62.7754 269.809 63.2988C269.809 63.8496 269.975 64.2871 270.307 64.6113C270.643 64.9355 271.094 65.0977 271.66 65.0977C272.07 65.0977 272.541 64.9785 273.072 64.7402Z"
                            fill="black" fill-opacity="0.5" />
                        <path
                            d="M276.869 60.5977C277.689 60.5977 278.371 60.8633 278.914 61.3945C279.457 61.9219 279.729 62.5859 279.729 63.3867C279.729 64.1641 279.453 64.8105 278.902 65.3262C278.352 65.8379 277.658 66.0938 276.822 66.0938C276.014 66.0938 275.338 65.834 274.795 65.3145C274.252 64.791 273.98 64.1387 273.98 63.3574C273.98 62.5684 274.254 61.9121 274.801 61.3887C275.352 60.8613 276.041 60.5977 276.869 60.5977ZM276.811 61.5586C276.299 61.5586 275.879 61.7266 275.551 62.0625C275.223 62.3984 275.059 62.8262 275.059 63.3457C275.059 63.8613 275.227 64.2832 275.562 64.6113C275.898 64.9355 276.33 65.0977 276.857 65.0977C277.381 65.0977 277.809 64.9336 278.141 64.6055C278.477 64.2734 278.645 63.8496 278.645 63.334C278.645 62.8223 278.471 62.3984 278.123 62.0625C277.775 61.7266 277.338 61.5586 276.811 61.5586Z"
                            fill="black" fill-opacity="0.5" />
                        <path
                            d="M285.33 62.0859V66H284.258V63C284.258 62.4023 284.178 61.9863 284.018 61.752C283.857 61.5137 283.578 61.3945 283.18 61.3945C282.957 61.3945 282.752 61.4453 282.564 61.5469C282.381 61.6484 282.17 61.8281 281.932 62.0859V66H280.865V60.6094H281.932V61.3184C282.475 60.7754 283.006 60.5039 283.525 60.5039C284.209 60.5039 284.738 60.8281 285.113 61.4766C285.684 60.8203 286.279 60.4922 286.9 60.4922C287.424 60.4922 287.854 60.6836 288.189 61.0664C288.529 61.4492 288.699 62.0332 288.699 62.8184V66H287.633V62.8066C287.633 62.3574 287.541 62.0137 287.357 61.7754C287.174 61.5371 286.91 61.418 286.566 61.418C286.125 61.418 285.713 61.6406 285.33 62.0859Z"
                            fill="black" fill-opacity="0.5" />
                        <path d="M289.443 66.1055L291.799 57.7031H292.643L290.293 66.1055H289.443Z"
                            fill="black" fill-opacity="0.5" />
                        <path
                            d="M297.588 64.7402V65.7949C297.053 65.9941 296.529 66.0938 296.018 66.0938C295.174 66.0938 294.5 65.8438 293.996 65.3438C293.496 64.8438 293.246 64.1738 293.246 63.334C293.246 62.4863 293.49 61.8027 293.979 61.2832C294.467 60.7637 295.109 60.5039 295.906 60.5039C296.184 60.5039 296.432 60.5312 296.65 60.5859C296.873 60.6367 297.146 60.7344 297.471 60.8789V62.0156C296.932 61.6719 296.432 61.5 295.971 61.5C295.49 61.5 295.096 61.6699 294.787 62.0098C294.479 62.3457 294.324 62.7754 294.324 63.2988C294.324 63.8496 294.49 64.2871 294.822 64.6113C295.158 64.9355 295.609 65.0977 296.176 65.0977C296.586 65.0977 297.057 64.9785 297.588 64.7402Z"
                            fill="black" fill-opacity="0.5" />
                        <path
                            d="M302.24 66V65.3145C302.014 65.5605 301.754 65.752 301.461 65.8887C301.172 66.0254 300.883 66.0938 300.594 66.0938C300.254 66.0938 299.939 66.0098 299.65 65.8418C299.365 65.6699 299.148 65.4395 299 65.1504C298.855 64.8574 298.783 64.373 298.783 63.6973V60.6094H299.85V63.6855C299.85 64.252 299.93 64.6484 300.09 64.875C300.254 65.0977 300.539 65.209 300.945 65.209C301.453 65.209 301.885 64.9609 302.24 64.4648V60.6094H303.307V66H302.24Z"
                            fill="black" fill-opacity="0.5" />
                        <path
                            d="M304.303 60.6094H308.908L306.055 65.0039H308.908V66H304.186L307.016 61.6055H304.303V60.6094Z"
                            fill="black" fill-opacity="0.5" />
                        <path
                            d="M313.314 60.6094H314.586L312.283 63.252L315.055 66H313.625L310.924 63.252L313.314 60.6094ZM309.811 57.8145H310.877V66H309.811V57.8145Z"
                            fill="black" fill-opacity="0.5" />
                        <path
                            d="M316.631 60.6094V61.2949C317.107 60.7676 317.648 60.5039 318.254 60.5039C318.59 60.5039 318.902 60.5918 319.191 60.7676C319.48 60.9395 319.699 61.1777 319.848 61.4824C320 61.7832 320.076 62.2617 320.076 62.918V66H319.01V62.9297C319.01 62.3789 318.926 61.9863 318.758 61.752C318.59 61.5137 318.309 61.3945 317.914 61.3945C317.41 61.3945 316.982 61.6465 316.631 62.1504V66H315.541V60.6094H316.631Z"
                            fill="black" fill-opacity="0.5" />
                        <path
                            d="M324.143 60.5977C324.963 60.5977 325.645 60.8633 326.188 61.3945C326.73 61.9219 327.002 62.5859 327.002 63.3867C327.002 64.1641 326.727 64.8105 326.176 65.3262C325.625 65.8379 324.932 66.0938 324.096 66.0938C323.287 66.0938 322.611 65.834 322.068 65.3145C321.525 64.791 321.254 64.1387 321.254 63.3574C321.254 62.5684 321.527 61.9121 322.074 61.3887C322.625 60.8613 323.314 60.5977 324.143 60.5977ZM324.084 61.5586C323.572 61.5586 323.152 61.7266 322.824 62.0625C322.496 62.3984 322.332 62.8262 322.332 63.3457C322.332 63.8613 322.5 64.2832 322.836 64.6113C323.172 64.9355 323.604 65.0977 324.131 65.0977C324.654 65.0977 325.082 64.9336 325.414 64.6055C325.75 64.2734 325.918 63.8496 325.918 63.334C325.918 62.8223 325.744 62.3984 325.396 62.0625C325.049 61.7266 324.611 61.5586 324.084 61.5586Z"
                            fill="black" fill-opacity="0.5" />
                        <path
                            d="M327.43 61.4648L329.434 59.4961V60.6094H331.139V61.5703H329.434V64.2129C329.434 64.8301 329.689 65.1387 330.201 65.1387C330.584 65.1387 330.988 65.0098 331.414 64.752V65.748C331.004 65.9785 330.557 66.0938 330.072 66.0938C329.584 66.0938 329.178 65.9512 328.854 65.666C328.752 65.5801 328.668 65.4844 328.602 65.3789C328.535 65.2695 328.479 65.1289 328.432 64.957C328.389 64.7812 328.367 64.4492 328.367 63.9609V61.5703H327.43V61.4648Z"
                            fill="black" fill-opacity="0.5" />
                        <path
                            d="M332.158 57.8145H333.225V61.3184C333.67 60.7754 334.223 60.5039 334.883 60.5039C335.242 60.5039 335.564 60.5938 335.85 60.7734C336.135 60.9531 336.346 61.2012 336.482 61.5176C336.623 61.834 336.693 62.3047 336.693 62.9297V66H335.627V62.666C335.627 62.2715 335.529 61.9551 335.334 61.7168C335.143 61.4746 334.889 61.3535 334.572 61.3535C334.338 61.3535 334.117 61.4141 333.91 61.5352C333.703 61.6562 333.475 61.8574 333.225 62.1387V66H332.158V57.8145Z"
                            fill="black" fill-opacity="0.5" />
                        <path
                            d="M337.678 60.6094H342.283L339.43 65.0039H342.283V66H337.561L340.391 61.6055H337.678V60.6094Z"
                            fill="black" fill-opacity="0.5" />
                    </g>
                </g>
                <g id="fade-up d-05">
                    <path id="fs web dev"
                        d="M60 138V125.22H68.442V126.66H61.62V130.926H67.362V132.276H61.62V138H60ZM76.128 138.09C75.2401 138.118 74.3582 137.936 73.554 137.559C72.8839 137.227 72.3081 136.732 71.88 136.119C71.4513 135.494 71.1402 134.795 70.962 134.058C70.7675 133.281 70.6695 132.483 70.67 131.682V125.22H72.29V131.682C72.289 132.296 72.3523 132.908 72.479 133.509C72.5942 134.071 72.8057 134.61 73.104 135.1C73.3895 135.567 73.7913 135.952 74.27 136.218C74.8362 136.512 75.4686 136.654 76.106 136.632C76.7504 136.656 77.3896 136.51 77.96 136.209C78.4409 135.938 78.8438 135.547 79.13 135.075C79.4252 134.583 79.6351 134.044 79.751 133.482C79.8774 132.89 79.9407 132.287 79.94 131.682V125.22H81.56V131.682C81.5634 132.51 81.4626 133.336 81.26 134.139C81.0798 134.875 80.7589 135.568 80.315 136.182C79.8759 136.778 79.2982 137.259 78.632 137.582C77.8475 137.942 76.9906 138.116 76.128 138.09ZM84.804 138V125.22H86.424V136.56H93.552V138H84.804ZM95.676 138V125.22H97.296V136.56H104.424V138H95.676ZM114.054 127.9C113.886 127.712 113.692 127.548 113.478 127.414C113.221 127.249 112.95 127.108 112.668 126.991C112.351 126.86 112.023 126.757 111.687 126.685C111.323 126.606 110.952 126.567 110.58 126.568C109.813 126.508 109.047 126.703 108.402 127.124C108.173 127.304 107.99 127.537 107.868 127.802C107.746 128.067 107.689 128.358 107.702 128.649C107.68 129.041 107.809 129.426 108.062 129.726C108.371 130.031 108.752 130.253 109.169 130.372C109.667 130.539 110.3 130.713 111.069 130.892C111.856 131.053 112.626 131.287 113.369 131.592C113.955 131.82 114.471 132.2 114.863 132.692C115.235 133.231 115.418 133.877 115.385 134.531C115.399 135.081 115.278 135.626 115.034 136.119C114.803 136.565 114.466 136.947 114.053 137.232C113.605 137.537 113.105 137.756 112.577 137.878C111.976 138.022 111.36 138.093 110.742 138.09C110.103 138.091 109.466 138.022 108.842 137.883C108.236 137.75 107.647 137.549 107.087 137.283C106.533 137.017 106.013 136.685 105.539 136.293L106.313 134.925C106.537 135.154 106.788 135.355 107.06 135.525C107.392 135.737 107.741 135.92 108.104 136.074C108.514 136.247 108.938 136.38 109.373 136.474C109.833 136.576 110.302 136.628 110.773 136.627C111.514 136.669 112.251 136.498 112.897 136.134C113.139 135.984 113.337 135.772 113.471 135.52C113.605 135.268 113.669 134.985 113.658 134.7C113.668 134.49 113.636 134.28 113.563 134.083C113.491 133.885 113.379 133.704 113.235 133.551C112.878 133.22 112.45 132.974 111.984 132.833C111.432 132.642 110.76 132.45 109.968 132.259C109.224 132.083 108.495 131.846 107.79 131.55C107.264 131.339 106.808 130.987 106.47 130.533C106.156 130.048 106.001 129.477 106.026 128.9C106.003 128.167 106.211 127.445 106.62 126.836C107.031 126.262 107.6 125.819 108.258 125.562C109.008 125.265 109.809 125.118 110.616 125.131C111.158 125.127 111.699 125.188 112.227 125.311C112.711 125.424 113.181 125.592 113.627 125.811C114.052 126.022 114.45 126.282 114.815 126.585L114.054 127.9ZM127.086 126.66H122.676V138H121.056V126.66H116.646V125.22H127.086V126.66ZM131.964 125.22H133.332L138.552 138H136.824L135.39 134.256H129.89L128.454 138H126.726L131.964 125.22ZM134.908 133L132.648 127.1L130.378 133H134.908ZM139.326 131.5C139.325 130.718 139.46 129.941 139.726 129.205C139.996 128.455 140.398 127.76 140.914 127.153C141.441 126.531 142.095 126.028 142.831 125.677C143.636 125.3 144.516 125.113 145.405 125.128C146.438 125.099 147.458 125.371 148.339 125.911C149.122 126.396 149.752 127.091 150.157 127.918L148.879 128.746C148.66 128.249 148.331 127.809 147.916 127.459C147.546 127.152 147.117 126.922 146.656 126.784C146.227 126.654 145.781 126.587 145.333 126.584C144.68 126.571 144.034 126.72 143.452 127.016C142.917 127.298 142.449 127.692 142.08 128.172C141.707 128.654 141.423 129.2 141.243 129.783C141.059 130.362 140.965 130.966 140.964 131.574C140.962 132.225 141.075 132.87 141.297 133.482C141.507 134.073 141.821 134.622 142.224 135.102C142.611 135.564 143.088 135.943 143.624 136.218C144.17 136.496 144.775 136.637 145.388 136.632C145.855 136.629 146.318 136.551 146.76 136.4C147.237 136.237 147.681 135.99 148.07 135.669C148.491 135.322 148.824 134.881 149.042 134.382L150.392 135.12C150.129 135.755 149.708 136.313 149.17 136.74C148.62 137.183 147.996 137.524 147.327 137.748C146.681 137.971 146.003 138.086 145.32 138.09C144.482 138.099 143.654 137.904 142.908 137.523C142.181 137.149 141.535 136.636 141.008 136.011C140.475 135.38 140.056 134.661 139.77 133.887C139.479 133.125 139.329 132.316 139.326 131.5ZM152.79 138V125.22H154.41V132.286L160.998 125.202H162.744L157.614 130.844L163.032 138H161.214L156.588 131.817L154.41 134.088V138H152.79ZM173.47 125.238H176.188L177.52 129.324L178.852 125.238H181.588L179.41 131.178L180.71 134.578L183.91 125.218H187.132L182.148 138H179.592L177.522 133L175.47 138H172.896L167.928 125.22H171.128L174.35 134.58L175.61 131.18L173.47 125.238ZM197.57 135.444L197.592 138H188.628L188.61 125.22H197.41L197.428 127.812L191.542 127.776L191.56 130.296L196.582 130.314L196.6 132.69H191.542L191.56 135.408L197.57 135.444ZM210.314 134.724C210.338 135.383 210.131 136.029 209.729 136.551C209.317 137.053 208.773 137.43 208.158 137.64C207.459 137.887 206.721 138.008 205.98 138H199.752V125.22H206.862C207.419 125.207 207.965 125.374 208.419 125.697C208.856 126.014 209.203 126.439 209.427 126.93C209.658 127.42 209.778 127.955 209.778 128.496C209.777 129.1 209.615 129.693 209.31 130.215C208.997 130.762 208.518 131.194 207.942 131.448C208.63 131.635 209.239 132.039 209.679 132.6C210.125 133.216 210.35 133.964 210.318 134.724H210.314ZM207.308 134.13C207.313 133.878 207.258 133.627 207.146 133.401C207.047 133.203 206.902 133.032 206.723 132.901C206.542 132.773 206.324 132.706 206.102 132.712H202.702V135.5H205.978C206.215 135.504 206.449 135.442 206.653 135.32C206.85 135.201 207.014 135.034 207.13 134.834C207.254 134.62 207.316 134.377 207.312 134.13H207.308ZM202.7 127.74V130.386H205.6C205.809 130.387 206.014 130.337 206.2 130.242C206.391 130.141 206.55 129.988 206.659 129.801C206.787 129.573 206.849 129.315 206.839 129.054C206.848 128.805 206.795 128.558 206.686 128.334C206.595 128.153 206.457 128.001 206.286 127.893C206.112 127.789 205.913 127.736 205.71 127.74H202.7ZM216.978 138V125.22H221.748C222.977 125.176 224.195 125.472 225.267 126.075C226.186 126.619 226.926 127.418 227.4 128.375C227.888 129.375 228.134 130.475 228.12 131.588C228.148 132.765 227.876 133.93 227.328 134.972C226.817 135.915 226.045 136.69 225.105 137.204C224.073 137.753 222.917 138.027 221.748 138H216.978ZM225.114 131.592C225.126 130.914 224.99 130.241 224.714 129.621C224.472 129.074 224.074 128.611 223.57 128.289C223.022 127.959 222.391 127.794 221.752 127.812H219.93V135.412H221.748C222.393 135.433 223.029 135.261 223.575 134.917C224.079 134.58 224.476 134.105 224.718 133.549C224.989 132.933 225.124 132.265 225.114 131.592ZM239.19 135.444L239.208 138H230.244L230.226 125.22H239.026L239.044 127.812L233.158 127.776L233.176 130.296L238.198 130.314L238.216 132.69H233.16L233.178 135.408L239.19 135.444ZM243.222 125.22L246.228 134.544L249.198 125.22H252.312L247.67 138H244.77L240.09 125.22H243.222Z"
                        fill="black" />
                </g>
                <path id="line" d="M60 107H252.5" stroke="black" stroke-width="3" />
            </g>
            <path id="cursor" d="M798 228H839" stroke="black" stroke-opacity="0.4" stroke-width="10" />

            <g id="info" style="translate: -46px">

                <g id="contribution">
                    <rect id="Rectangle 1_2" x="421" y="336" width="50" height="37" fill="#555555" />
                    <rect id="Rectangle 2_2" x="471" y="336" width="116" height="37" fill="#8CECFF" />
                    <g id="CONTRIBUTIONS">
                        <path
                            d="M493.37 359.16C492.903 359.16 492.49 359.053 492.13 358.84C491.77 358.627 491.49 358.327 491.29 357.94C491.097 357.547 491 357.093 491 356.58V354.58C491 354.067 491.1 353.617 491.3 353.23C491.5 352.837 491.78 352.533 492.14 352.32C492.507 352.107 492.93 352 493.41 352H494.47C494.923 352 495.323 352.1 495.67 352.3C496.023 352.493 496.293 352.767 496.48 353.12C496.673 353.473 496.77 353.88 496.77 354.34H495.84C495.84 353.893 495.713 353.533 495.46 353.26C495.213 352.987 494.883 352.85 494.47 352.85H493.41C492.977 352.85 492.623 353.01 492.35 353.33C492.083 353.65 491.95 354.073 491.95 354.6V356.56C491.95 357.087 492.08 357.51 492.34 357.83C492.6 358.15 492.943 358.31 493.37 358.31H494.45C494.877 358.31 495.217 358.16 495.47 357.86C495.73 357.553 495.86 357.153 495.86 356.66H496.79C496.79 357.153 496.693 357.59 496.5 357.97C496.307 358.35 496.033 358.643 495.68 358.85C495.327 359.057 494.917 359.16 494.45 359.16H493.37Z"
                            fill="black" />
                        <path
                            d="M500.139 359.16C499.653 359.16 499.223 359.053 498.849 358.84C498.483 358.627 498.196 358.327 497.989 357.94C497.789 357.553 497.689 357.103 497.689 356.59V354.57C497.689 354.057 497.789 353.607 497.989 353.22C498.196 352.833 498.486 352.533 498.859 352.32C499.233 352.107 499.663 352 500.149 352H501.209C501.696 352 502.123 352.107 502.489 352.32C502.863 352.533 503.149 352.833 503.349 353.22C503.556 353.607 503.659 354.057 503.659 354.57V356.59C503.659 357.103 503.556 357.553 503.349 357.94C503.149 358.327 502.863 358.627 502.489 358.84C502.116 359.053 501.689 359.16 501.209 359.16H500.139ZM501.189 358.31C501.643 358.31 502.009 358.153 502.289 357.84C502.569 357.52 502.709 357.097 502.709 356.57V354.59C502.709 354.063 502.569 353.643 502.289 353.33C502.009 353.01 501.643 352.85 501.189 352.85H500.159C499.706 352.85 499.339 353.01 499.059 353.33C498.779 353.643 498.639 354.063 498.639 354.59V356.57C498.639 357.097 498.776 357.52 499.049 357.84C499.329 358.153 499.696 358.31 500.149 358.31H501.189Z"
                            fill="black" />
                        <path
                            d="M504.94 352.08H505.82L509.52 357.55V352.08H510.45V359.08H509.58L505.87 353.63V359.08H504.94V352.08Z"
                            fill="black" />
                        <path
                            d="M513.652 352.91H511.432V352.08H516.822V352.91H514.602V359.08H513.652V352.91Z"
                            fill="black" />
                        <path
                            d="M517.802 352.08H521.312C521.852 352.08 522.285 352.233 522.612 352.54C522.945 352.84 523.112 353.237 523.112 353.73V354.45C523.112 354.797 523.002 355.103 522.782 355.37C522.568 355.637 522.275 355.83 521.902 355.95V355.96C522.295 356.193 522.588 356.62 522.782 357.24L523.332 359.08H522.352L521.812 357.28C521.718 356.967 521.568 356.72 521.362 356.54C521.162 356.36 520.932 356.27 520.672 356.27H518.752V359.08H517.802V352.08ZM521.052 355.43C521.385 355.43 521.652 355.34 521.852 355.16C522.058 354.98 522.162 354.743 522.162 354.45V353.72C522.162 353.48 522.082 353.287 521.922 353.14C521.762 352.993 521.552 352.92 521.292 352.92H518.752V355.43H521.052Z"
                            fill="black" />
                        <path d="M524.493 352.08H525.443V359.08H524.493V352.08Z" fill="black" />
                        <path
                            d="M527.78 359.08C527.554 359.08 527.37 359.013 527.23 358.88C527.09 358.74 527.02 358.557 527.02 358.33V352.08H530.15C530.757 352.08 531.244 352.227 531.61 352.52C531.984 352.807 532.17 353.19 532.17 353.67V354.19C532.17 354.43 532.114 354.657 532 354.87C531.894 355.083 531.74 355.257 531.54 355.39V355.4C531.86 355.493 532.117 355.667 532.31 355.92C532.51 356.167 532.61 356.453 532.61 356.78V357.28C532.61 357.827 532.427 358.263 532.06 358.59C531.7 358.917 531.21 359.08 530.59 359.08H527.78ZM530.29 355.15C530.57 355.15 530.794 355.063 530.96 354.89C531.134 354.71 531.22 354.473 531.22 354.18V353.72C531.22 353.48 531.12 353.287 530.92 353.14C530.72 352.993 530.46 352.92 530.14 352.92H527.97V355.15H530.29ZM530.49 358.24C530.85 358.24 531.134 358.15 531.34 357.97C531.554 357.79 531.66 357.55 531.66 357.25V356.78C531.66 356.533 531.57 356.333 531.39 356.18C531.21 356.027 530.974 355.95 530.68 355.95H527.97V358.24H530.49Z"
                            fill="black" />
                        <path
                            d="M535.959 359.16C535.506 359.16 535.106 359.063 534.759 358.87C534.419 358.67 534.156 358.39 533.969 358.03C533.783 357.67 533.689 357.257 533.689 356.79V352.08H534.639V356.79C534.639 357.243 534.759 357.61 534.999 357.89C535.246 358.17 535.566 358.31 535.959 358.31H537.029C537.423 358.31 537.739 358.17 537.979 357.89C538.226 357.61 538.349 357.243 538.349 356.79V352.08H539.299V356.79C539.299 357.257 539.206 357.67 539.019 358.03C538.833 358.39 538.566 358.67 538.219 358.87C537.879 359.063 537.483 359.16 537.029 359.16H535.959Z"
                            fill="black" />
                        <path
                            d="M542.461 352.91H540.241V352.08H545.631V352.91H543.411V359.08H542.461V352.91Z"
                            fill="black" />
                        <path d="M546.71 352.08H547.66V359.08H546.71V352.08Z" fill="black" />
                        <path
                            d="M551.487 359.16C551 359.16 550.57 359.053 550.197 358.84C549.83 358.627 549.544 358.327 549.337 357.94C549.137 357.553 549.037 357.103 549.037 356.59V354.57C549.037 354.057 549.137 353.607 549.337 353.22C549.544 352.833 549.834 352.533 550.207 352.32C550.58 352.107 551.01 352 551.497 352H552.557C553.044 352 553.47 352.107 553.837 352.32C554.21 352.533 554.497 352.833 554.697 353.22C554.904 353.607 555.007 354.057 555.007 354.57V356.59C555.007 357.103 554.904 357.553 554.697 357.94C554.497 358.327 554.21 358.627 553.837 358.84C553.464 359.053 553.037 359.16 552.557 359.16H551.487ZM552.537 358.31C552.99 358.31 553.357 358.153 553.637 357.84C553.917 357.52 554.057 357.097 554.057 356.57V354.59C554.057 354.063 553.917 353.643 553.637 353.33C553.357 353.01 552.99 352.85 552.537 352.85H551.507C551.054 352.85 550.687 353.01 550.407 353.33C550.127 353.643 549.987 354.063 549.987 354.59V356.57C549.987 357.097 550.124 357.52 550.397 357.84C550.677 358.153 551.044 358.31 551.497 358.31H552.537Z"
                            fill="black" />
                        <path
                            d="M556.288 352.08H557.168L560.868 357.55V352.08H561.798V359.08H560.928L557.218 353.63V359.08H556.288V352.08Z"
                            fill="black" />
                        <path
                            d="M565.17 359.16C564.523 359.16 564.007 358.967 563.62 358.58C563.233 358.193 563.04 357.673 563.04 357.02H563.97C563.97 357.413 564.08 357.727 564.3 357.96C564.527 358.193 564.823 358.31 565.19 358.31H566.3C566.667 358.31 566.96 358.233 567.18 358.08C567.4 357.92 567.51 357.71 567.51 357.45V356.91C567.51 356.703 567.43 356.53 567.27 356.39C567.117 356.25 566.897 356.157 566.61 356.11L564.79 355.81C564.257 355.723 563.843 355.54 563.55 355.26C563.263 354.98 563.12 354.63 563.12 354.21V353.66C563.12 353.16 563.31 352.76 563.69 352.46C564.077 352.153 564.583 352 565.21 352H566.34C566.733 352 567.08 352.083 567.38 352.25C567.687 352.41 567.923 352.64 568.09 352.94C568.257 353.233 568.34 353.573 568.34 353.96H567.4C567.4 353.627 567.303 353.36 567.11 353.16C566.917 352.953 566.66 352.85 566.34 352.85H565.21C564.87 352.85 564.593 352.927 564.38 353.08C564.173 353.227 564.07 353.43 564.07 353.69V354.14C564.07 354.353 564.143 354.53 564.29 354.67C564.443 354.81 564.66 354.907 564.94 354.96L566.74 355.27C567.293 355.363 567.717 355.547 568.01 355.82C568.31 356.087 568.46 356.423 568.46 356.83V357.48C568.46 357.987 568.263 358.393 567.87 358.7C567.483 359.007 566.967 359.16 566.32 359.16H565.17Z"
                            fill="black" />
                    </g>
                </g>
                <text xmlns="http://www.w3.org/2000/svg" id="200_2" fill="white"
                    xml:space="preserve" style="white-space: pre" font-family="Segoe UI"
                    font-size="14" font-weight="500" letter-spacing="0em">
                    <tspan x="434" y="360.297">2123</tspan>
                </text>
                <g id="follower">
                    <rect id="Rectangle 3" x="275" y="336" width="45" height="37" fill="#555555" />
                    <rect id="Rectangle 2_3" x="320" y="336" width="93" height="37" fill="#FF9EB6" />
                    <g id="FOLLOWERS">
                        <path
                            d="M338 351.08H342.81V351.92H338.95V354.25H342.44V355.09H338.95V358.08H338V351.08Z"
                            fill="black" />
                        <path
                            d="M345.904 358.16C345.418 358.16 344.988 358.053 344.614 357.84C344.248 357.627 343.961 357.327 343.754 356.94C343.554 356.553 343.454 356.103 343.454 355.59V353.57C343.454 353.057 343.554 352.607 343.754 352.22C343.961 351.833 344.251 351.533 344.624 351.32C344.998 351.107 345.428 351 345.914 351H346.974C347.461 351 347.888 351.107 348.254 351.32C348.628 351.533 348.914 351.833 349.114 352.22C349.321 352.607 349.424 353.057 349.424 353.57V355.59C349.424 356.103 349.321 356.553 349.114 356.94C348.914 357.327 348.628 357.627 348.254 357.84C347.881 358.053 347.454 358.16 346.974 358.16H345.904ZM346.954 357.31C347.408 357.31 347.774 357.153 348.054 356.84C348.334 356.52 348.474 356.097 348.474 355.57V353.59C348.474 353.063 348.334 352.643 348.054 352.33C347.774 352.01 347.408 351.85 346.954 351.85H345.924C345.471 351.85 345.104 352.01 344.824 352.33C344.544 352.643 344.404 353.063 344.404 353.59V355.57C344.404 356.097 344.541 356.52 344.814 356.84C345.094 357.153 345.461 357.31 345.914 357.31H346.954Z"
                            fill="black" />
                        <path
                            d="M351.465 358.08C351.232 358.08 351.045 358.013 350.905 357.88C350.772 357.747 350.705 357.567 350.705 357.34V351.08H351.655V357.24H355.455V358.08H351.465Z"
                            fill="black" />
                        <path
                            d="M357.158 358.08C356.925 358.08 356.738 358.013 356.598 357.88C356.465 357.747 356.398 357.567 356.398 357.34V351.08H357.348V357.24H361.148V358.08H357.158Z"
                            fill="black" />
                        <path
                            d="M364.078 358.16C363.591 358.16 363.161 358.053 362.788 357.84C362.421 357.627 362.135 357.327 361.928 356.94C361.728 356.553 361.628 356.103 361.628 355.59V353.57C361.628 353.057 361.728 352.607 361.928 352.22C362.135 351.833 362.425 351.533 362.798 351.32C363.171 351.107 363.601 351 364.088 351H365.148C365.635 351 366.061 351.107 366.428 351.32C366.801 351.533 367.088 351.833 367.288 352.22C367.495 352.607 367.598 353.057 367.598 353.57V355.59C367.598 356.103 367.495 356.553 367.288 356.94C367.088 357.327 366.801 357.627 366.428 357.84C366.055 358.053 365.628 358.16 365.148 358.16H364.078ZM365.128 357.31C365.581 357.31 365.948 357.153 366.228 356.84C366.508 356.52 366.648 356.097 366.648 355.57V353.59C366.648 353.063 366.508 352.643 366.228 352.33C365.948 352.01 365.581 351.85 365.128 351.85H364.098C363.645 351.85 363.278 352.01 362.998 352.33C362.718 352.643 362.578 353.063 362.578 353.59V355.57C362.578 356.097 362.715 356.52 362.988 356.84C363.268 357.153 363.635 357.31 364.088 357.31H365.128Z"
                            fill="black" />
                        <path
                            d="M370.3 358.08C370.1 358.08 369.937 358.027 369.81 357.92C369.69 357.813 369.61 357.637 369.57 357.39L368.36 351.08H369.31L370.33 356.76H370.34L372 351.45H372.37C372.504 351.45 372.614 351.49 372.7 351.57C372.794 351.643 372.867 351.767 372.92 351.94L374.37 356.76H374.38L375.4 351.08H376.35L375.14 357.39C375.094 357.623 375.01 357.797 374.89 357.91C374.777 358.023 374.617 358.08 374.41 358.08H374.01L372.38 352.72H372.37L370.7 358.08H370.3Z"
                            fill="black" />
                        <path
                            d="M378.135 358.08C377.902 358.08 377.715 358.013 377.575 357.88C377.442 357.747 377.375 357.563 377.375 357.33V351.08H382.285V351.91H378.325V354.09H381.985V354.91H378.325V357.25H382.285V358.08H378.135Z"
                            fill="black" />
                        <path
                            d="M383.469 351.08H386.979C387.519 351.08 387.952 351.233 388.279 351.54C388.612 351.84 388.779 352.237 388.779 352.73V353.45C388.779 353.797 388.669 354.103 388.449 354.37C388.235 354.637 387.942 354.83 387.569 354.95V354.96C387.962 355.193 388.255 355.62 388.449 356.24L388.999 358.08H388.019L387.479 356.28C387.385 355.967 387.235 355.72 387.029 355.54C386.829 355.36 386.599 355.27 386.339 355.27H384.419V358.08H383.469V351.08ZM386.719 354.43C387.052 354.43 387.319 354.34 387.519 354.16C387.725 353.98 387.829 353.743 387.829 353.45V352.72C387.829 352.48 387.749 352.287 387.589 352.14C387.429 351.993 387.219 351.92 386.959 351.92H384.419V354.43H386.719Z"
                            fill="black" />
                        <path
                            d="M391.951 358.16C391.304 358.16 390.787 357.967 390.401 357.58C390.014 357.193 389.821 356.673 389.821 356.02H390.751C390.751 356.413 390.861 356.727 391.081 356.96C391.307 357.193 391.604 357.31 391.971 357.31H393.081C393.447 357.31 393.741 357.233 393.961 357.08C394.181 356.92 394.291 356.71 394.291 356.45V355.91C394.291 355.703 394.211 355.53 394.051 355.39C393.897 355.25 393.677 355.157 393.391 355.11L391.571 354.81C391.037 354.723 390.624 354.54 390.331 354.26C390.044 353.98 389.901 353.63 389.901 353.21V352.66C389.901 352.16 390.091 351.76 390.471 351.46C390.857 351.153 391.364 351 391.991 351H393.121C393.514 351 393.861 351.083 394.161 351.25C394.467 351.41 394.704 351.64 394.871 351.94C395.037 352.233 395.121 352.573 395.121 352.96H394.181C394.181 352.627 394.084 352.36 393.891 352.16C393.697 351.953 393.441 351.85 393.121 351.85H391.991C391.651 351.85 391.374 351.927 391.161 352.08C390.954 352.227 390.851 352.43 390.851 352.69V353.14C390.851 353.353 390.924 353.53 391.071 353.67C391.224 353.81 391.441 353.907 391.721 353.96L393.521 354.27C394.074 354.363 394.497 354.547 394.791 354.82C395.091 355.087 395.241 355.423 395.241 355.83V356.48C395.241 356.987 395.044 357.393 394.651 357.7C394.264 358.007 393.747 358.16 393.101 358.16H391.951Z"
                            fill="black" />
                    </g>
                </g>
                <text xmlns="http://www.w3.org/2000/svg" id="2" fill="white" xml:space="preserve"
                    style="white-space: pre" font-family="Segoe UI" font-size="14" font-weight="600"
                    letter-spacing="0em">
                    <tspan x="293" y="360.297">10</tspan>
                </text>

                <g id="repo">
                    <rect id="Rectangle 3_2" x="161" y="336" width="45" height="37" fill="#555555" />
                    <rect id="Rectangle 2_4" x="206" y="336" width="61" height="37" fill="#F2E174" />
                    <g id="REPOS">
                        <path
                            d="M221 352.08H224.51C225.05 352.08 225.483 352.233 225.81 352.54C226.143 352.84 226.31 353.237 226.31 353.73V354.45C226.31 354.797 226.2 355.103 225.98 355.37C225.767 355.637 225.473 355.83 225.1 355.95V355.96C225.493 356.193 225.787 356.62 225.98 357.24L226.53 359.08H225.55L225.01 357.28C224.917 356.967 224.767 356.72 224.56 356.54C224.36 356.36 224.13 356.27 223.87 356.27H221.95V359.08H221V352.08ZM224.25 355.43C224.583 355.43 224.85 355.34 225.05 355.16C225.257 354.98 225.36 354.743 225.36 354.45V353.72C225.36 353.48 225.28 353.287 225.12 353.14C224.96 352.993 224.75 352.92 224.49 352.92H221.95V355.43H224.25Z"
                            fill="black" />
                        <path
                            d="M228.352 359.08C228.118 359.08 227.932 359.013 227.792 358.88C227.658 358.747 227.592 358.563 227.592 358.33V352.08H232.502V352.91H228.542V355.09H232.202V355.91H228.542V358.25H232.502V359.08H228.352Z"
                            fill="black" />
                        <path
                            d="M233.686 352.08H237.176C237.729 352.08 238.172 352.237 238.506 352.55C238.846 352.857 239.016 353.267 239.016 353.78V354.78C239.016 355.32 238.836 355.757 238.476 356.09C238.122 356.417 237.652 356.58 237.066 356.58H234.636V359.08H233.686V352.08ZM237.046 355.74C237.352 355.74 237.599 355.65 237.786 355.47C237.972 355.283 238.066 355.04 238.066 354.74V353.79C238.066 353.53 237.982 353.32 237.816 353.16C237.649 353 237.429 352.92 237.156 352.92H234.636V355.74H237.046Z"
                            fill="black" />
                        <path
                            d="M242.264 359.16C241.777 359.16 241.347 359.053 240.974 358.84C240.607 358.627 240.32 358.327 240.114 357.94C239.914 357.553 239.814 357.103 239.814 356.59V354.57C239.814 354.057 239.914 353.607 240.114 353.22C240.32 352.833 240.61 352.533 240.984 352.32C241.357 352.107 241.787 352 242.274 352H243.334C243.82 352 244.247 352.107 244.614 352.32C244.987 352.533 245.274 352.833 245.474 353.22C245.68 353.607 245.784 354.057 245.784 354.57V356.59C245.784 357.103 245.68 357.553 245.474 357.94C245.274 358.327 244.987 358.627 244.614 358.84C244.24 359.053 243.814 359.16 243.334 359.16H242.264ZM243.314 358.31C243.767 358.31 244.134 358.153 244.414 357.84C244.694 357.52 244.834 357.097 244.834 356.57V354.59C244.834 354.063 244.694 353.643 244.414 353.33C244.134 353.01 243.767 352.85 243.314 352.85H242.284C241.83 352.85 241.464 353.01 241.184 353.33C240.904 353.643 240.764 354.063 240.764 354.59V356.57C240.764 357.097 240.9 357.52 241.174 357.84C241.454 358.153 241.82 358.31 242.274 358.31H243.314Z"
                            fill="black" />
                        <path
                            d="M248.954 359.16C248.308 359.16 247.791 358.967 247.404 358.58C247.018 358.193 246.824 357.673 246.824 357.02H247.754C247.754 357.413 247.864 357.727 248.084 357.96C248.311 358.193 248.608 358.31 248.974 358.31H250.084C250.451 358.31 250.744 358.233 250.964 358.08C251.184 357.92 251.294 357.71 251.294 357.45V356.91C251.294 356.703 251.214 356.53 251.054 356.39C250.901 356.25 250.681 356.157 250.394 356.11L248.574 355.81C248.041 355.723 247.628 355.54 247.334 355.26C247.048 354.98 246.904 354.63 246.904 354.21V353.66C246.904 353.16 247.094 352.76 247.474 352.46C247.861 352.153 248.368 352 248.994 352H250.124C250.518 352 250.864 352.083 251.164 352.25C251.471 352.41 251.708 352.64 251.874 352.94C252.041 353.233 252.124 353.573 252.124 353.96H251.184C251.184 353.627 251.088 353.36 250.894 353.16C250.701 352.953 250.444 352.85 250.124 352.85H248.994C248.654 352.85 248.378 352.927 248.164 353.08C247.958 353.227 247.854 353.43 247.854 353.69V354.14C247.854 354.353 247.928 354.53 248.074 354.67C248.228 354.81 248.444 354.907 248.724 354.96L250.524 355.27C251.078 355.363 251.501 355.547 251.794 355.82C252.094 356.087 252.244 356.423 252.244 356.83V357.48C252.244 357.987 252.048 358.393 251.654 358.7C251.268 359.007 250.751 359.16 250.104 359.16H248.954Z"
                            fill="black" />
                    </g>
                </g>
                <text xmlns="http://www.w3.org/2000/svg" id="20" fill="white" xml:space="preserve"
                    style="white-space: pre" font-family="Segoe UI" font-size="14" font-weight="600"
                    letter-spacing="0em">
                    <tspan x="175" y="360.297">18</tspan>
                </text>

                <g id="star">
                    <rect id="Rectangle 1_3" x="46" y="336" width="45" height="37" fill="#555555" />

                    <rect id="Rectangle 2_5" x="91" y="336" width="62" height="37" fill="#8CECFF" />
                    <g id="STARS">
                        <path
                            d="M109.13 359.16C108.483 359.16 107.967 358.967 107.58 358.58C107.193 358.193 107 357.673 107 357.02H107.93C107.93 357.413 108.04 357.727 108.26 357.96C108.487 358.193 108.783 358.31 109.15 358.31H110.26C110.627 358.31 110.92 358.233 111.14 358.08C111.36 357.92 111.47 357.71 111.47 357.45V356.91C111.47 356.703 111.39 356.53 111.23 356.39C111.077 356.25 110.857 356.157 110.57 356.11L108.75 355.81C108.217 355.723 107.803 355.54 107.51 355.26C107.223 354.98 107.08 354.63 107.08 354.21V353.66C107.08 353.16 107.27 352.76 107.65 352.46C108.037 352.153 108.543 352 109.17 352H110.3C110.693 352 111.04 352.083 111.34 352.25C111.647 352.41 111.883 352.64 112.05 352.94C112.217 353.233 112.3 353.573 112.3 353.96H111.36C111.36 353.627 111.263 353.36 111.07 353.16C110.877 352.953 110.62 352.85 110.3 352.85H109.17C108.83 352.85 108.553 352.927 108.34 353.08C108.133 353.227 108.03 353.43 108.03 353.69V354.14C108.03 354.353 108.103 354.53 108.25 354.67C108.403 354.81 108.62 354.907 108.9 354.96L110.7 355.27C111.253 355.363 111.677 355.547 111.97 355.82C112.27 356.087 112.42 356.423 112.42 356.83V357.48C112.42 357.987 112.223 358.393 111.83 358.7C111.443 359.007 110.927 359.16 110.28 359.16H109.13Z"
                            fill="black" />
                        <path
                            d="M115.171 352.91H112.951V352.08H118.341V352.91H116.121V359.08H115.171V352.91Z"
                            fill="black" />
                        <path
                            d="M122.334 357.24H119.414L118.734 359.08H117.744L120.454 352.08H120.884C121.171 352.08 121.374 352.237 121.494 352.55L124.004 359.08H123.024L122.334 357.24ZM119.694 356.44H122.054L120.884 353.28H120.874L119.694 356.44Z"
                            fill="black" />
                        <path
                            d="M124.906 352.08H128.416C128.956 352.08 129.389 352.233 129.716 352.54C130.049 352.84 130.216 353.237 130.216 353.73V354.45C130.216 354.797 130.106 355.103 129.886 355.37C129.673 355.637 129.379 355.83 129.006 355.95V355.96C129.399 356.193 129.693 356.62 129.886 357.24L130.436 359.08H129.456L128.916 357.28C128.823 356.967 128.673 356.72 128.466 356.54C128.266 356.36 128.036 356.27 127.776 356.27H125.856V359.08H124.906V352.08ZM128.156 355.43C128.489 355.43 128.756 355.34 128.956 355.16C129.163 354.98 129.266 354.743 129.266 354.45V353.72C129.266 353.48 129.186 353.287 129.026 353.14C128.866 352.993 128.656 352.92 128.396 352.92H125.856V355.43H128.156Z"
                            fill="black" />
                        <path
                            d="M133.388 359.16C132.741 359.16 132.224 358.967 131.838 358.58C131.451 358.193 131.258 357.673 131.258 357.02H132.188C132.188 357.413 132.298 357.727 132.518 357.96C132.744 358.193 133.041 358.31 133.408 358.31H134.518C134.884 358.31 135.178 358.233 135.398 358.08C135.618 357.92 135.728 357.71 135.728 357.45V356.91C135.728 356.703 135.648 356.53 135.488 356.39C135.334 356.25 135.114 356.157 134.828 356.11L133.008 355.81C132.474 355.723 132.061 355.54 131.768 355.26C131.481 354.98 131.338 354.63 131.338 354.21V353.66C131.338 353.16 131.528 352.76 131.908 352.46C132.294 352.153 132.801 352 133.428 352H134.558C134.951 352 135.298 352.083 135.598 352.25C135.904 352.41 136.141 352.64 136.308 352.94C136.474 353.233 136.558 353.573 136.558 353.96H135.618C135.618 353.627 135.521 353.36 135.328 353.16C135.134 352.953 134.878 352.85 134.558 352.85H133.428C133.088 352.85 132.811 352.927 132.598 353.08C132.391 353.227 132.288 353.43 132.288 353.69V354.14C132.288 354.353 132.361 354.53 132.508 354.67C132.661 354.81 132.878 354.907 133.158 354.96L134.958 355.27C135.511 355.363 135.934 355.547 136.228 355.82C136.528 356.087 136.678 356.423 136.678 356.83V357.48C136.678 357.987 136.481 358.393 136.088 358.7C135.701 359.007 135.184 359.16 134.538 359.16H133.388Z"
                            fill="black" />
                    </g>
                </g>
                <text xmlns="http://www.w3.org/2000/svg" id="20_2" fill="white" xml:space="preserve"
                    style="white-space: pre" font-family="Segoe UI" font-size="14" font-weight="600"
                    letter-spacing="0em">
                    <tspan x="60" y="360.297">33</tspan>
                </text>

            </g>
        </g>
    </g>
    <defs>
        <clipPath id="clip0_0_1">
            <rect width="1200" height="400" fill="white" />
        </clipPath>
    </defs>
</svg>
